<svg width="51" height="59" viewBox="0 0 51 59" fill="none" xmlns="http://www.w3.org/2000/svg">
<path d="M41.3828 9.21875V9.46875H41.6328H50.6016V20.7422C50.6016 24.4165 47.6118 27.4062 43.9375 27.4062H39.8717H39.7268L39.6547 27.532C39.4918 27.8166 39.3173 28.0958 39.1315 28.3694C37.5502 30.6965 35.1638 32.5667 32.0233 33.9204C29.3136 35.0884 27.5547 37.6817 27.5547 40.5343V45.1719V45.4219H27.8047H36.7734V54.3906V54.6406H37.0234H41.3828V58.75H9.61719V54.6406H13.9766H14.2266V54.3906V45.4219H23.1953H23.4453V45.1719V40.5342C23.4453 37.6817 21.6864 35.0884 18.9767 33.9202C15.8362 32.5665 13.4498 30.6964 11.8685 28.3694L11.6617 28.5099L11.8685 28.3694C11.6827 28.0959 11.5083 27.8167 11.3453 27.532L11.2733 27.4062H11.1283H7.0625C3.38816 27.4062 0.398438 24.4165 0.398438 20.7422V9.46875H9.36719H9.61719V9.21875V4.60938V4.35938H9.36719H5.00781V0.25H45.9922V4.35938H41.6328H41.3828V4.60938V9.21875ZM4.75781 13.5781H4.50781V13.8281V20.7422C4.50781 22.1511 5.65362 23.2969 7.0625 23.2969H9.53946H9.83037L9.78662 23.0093C9.67514 22.2764 9.61719 21.5208 9.61719 20.7422V13.8281V13.5781H9.36719H4.75781ZM32.4141 54.6406H32.6641V54.3906V49.7812V49.5312H32.4141H18.5859H18.3359V49.7812V54.3906V54.6406H18.5859H32.4141ZM25.3001 33.8318L25.5 34.0978L25.6999 33.8318C26.884 32.2562 28.4864 30.9702 30.3966 30.1467C32.658 29.1719 34.3796 27.8948 35.5358 26.3176C36.6937 24.738 37.2734 22.8723 37.2734 20.7422V4.60938V4.35938H37.0234H13.9766H13.7266V4.60938V20.7422C13.7266 22.8723 14.3063 24.738 15.4642 26.3176C16.6204 27.8948 18.342 29.1719 20.6033 30.1467L20.6033 30.1467C22.5135 30.9701 24.116 32.2562 25.3001 33.8318ZM41.2134 23.0093L41.1696 23.2969H41.4605H43.9375C45.3464 23.2969 46.4922 22.1511 46.4922 20.7422V13.8281V13.5781H46.2422H41.6328H41.3828V13.8281V20.7422C41.3828 21.5208 41.3249 22.2764 41.2134 23.0093Z" fill="#FE640D" stroke="#32323C" stroke-width="0.5"/>
</svg>
