<svg width="59" height="59" viewBox="0 0 59 59" fill="none" xmlns="http://www.w3.org/2000/svg">
<path d="M29.5 0.25C33.1743 0.25 36.1641 3.23972 36.1641 6.91406C36.1641 10.5884 33.1743 13.5781 29.5 13.5781C25.8257 13.5781 22.8359 10.5884 22.8359 6.91406C22.8359 3.23972 25.8257 0.25 29.5 0.25ZM26.9453 6.91406C26.9453 8.32294 28.0911 9.46875 29.5 9.46875C30.9089 9.46875 32.0547 8.32294 32.0547 6.91406C32.0547 5.50519 30.9089 4.35938 29.5 4.35938C28.0911 4.35938 26.9453 5.50519 26.9453 6.91406Z" fill="#FE640D" stroke="#32323C" stroke-width="0.5"/>
<path d="M36.4141 23.2969H36.6641V23.0469V20.7422C36.6641 19.3333 35.5183 18.1875 34.1094 18.1875H24.8906C23.4817 18.1875 22.3359 19.3333 22.3359 20.7422V23.0469V23.2969H22.5859H36.4141ZM34.1094 14.0781C37.7837 14.0781 40.7734 17.0678 40.7734 20.7422V27.4062H18.2266V20.7422C18.2266 17.0678 21.2163 14.0781 24.8906 14.0781H29.5H34.1094Z" fill="#FE640D" stroke="#32323C" stroke-width="0.5"/>
<path d="M11.5234 31.5938C15.1978 31.5938 18.1875 34.5835 18.1875 38.2578C18.1875 41.9322 15.1978 44.9219 11.5234 44.9219C7.84909 44.9219 4.85938 41.9322 4.85938 38.2578C4.85938 34.5835 7.84909 31.5938 11.5234 31.5938ZM8.96875 38.2578C8.96875 39.6667 10.1146 40.8125 11.5234 40.8125C12.9323 40.8125 14.0781 39.6667 14.0781 38.2578C14.0781 36.8489 12.9323 35.7031 11.5234 35.7031C10.1146 35.7031 8.96875 36.8489 8.96875 38.2578Z" fill="#FE640D" stroke="#32323C" stroke-width="0.5"/>
<path d="M18.4375 54.6406H18.6875V54.3906V52.0859C18.6875 50.6771 17.5417 49.5312 16.1328 49.5312H6.91406C5.50519 49.5312 4.35938 50.6771 4.35938 52.0859V54.3906V54.6406H4.60938H18.4375ZM11.5234 45.4219H16.1328C19.8072 45.4219 22.7969 48.4116 22.7969 52.0859V58.75H0.25V52.0859C0.25 48.4116 3.23972 45.4219 6.91406 45.4219H11.5234Z" fill="#FE640D" stroke="#32323C" stroke-width="0.5"/>
<path d="M47.4766 31.5938C51.1509 31.5938 54.1406 34.5835 54.1406 38.2578C54.1406 41.9322 51.1509 44.9219 47.4766 44.9219C43.8022 44.9219 40.8125 41.9322 40.8125 38.2578C40.8125 34.5835 43.8022 31.5938 47.4766 31.5938ZM44.9219 38.2578C44.9219 39.6667 46.0677 40.8125 47.4766 40.8125C48.8854 40.8125 50.0312 39.6667 50.0312 38.2578C50.0312 36.8489 48.8854 35.7031 47.4766 35.7031C46.0677 35.7031 44.9219 36.8489 44.9219 38.2578Z" fill="#FE640D" stroke="#32323C" stroke-width="0.5"/>
<path d="M54.3906 54.6406H54.6406V54.3906V52.0859C54.6406 50.6771 53.4948 49.5312 52.0859 49.5312H42.8672C41.4583 49.5312 40.3125 50.6771 40.3125 52.0859V54.3906V54.6406H40.5625H54.3906ZM47.4766 45.4219H52.0859C55.7603 45.4219 58.75 48.4116 58.75 52.0859V58.75H36.2031V52.0859C36.2031 48.4116 39.1928 45.4219 42.8672 45.4219H47.4766Z" fill="#FE640D" stroke="#32323C" stroke-width="0.5"/>
<path d="M31.5546 37.3032V37.4068L31.6278 37.48L37.6901 43.5422L34.7842 46.448L29.6767 41.3403L29.4999 41.1635L29.3231 41.3403L24.2156 46.448L21.3096 43.5422L27.372 37.48L27.4452 37.4068V37.3032V31.5938H31.5546V37.3032Z" fill="#FE640D" stroke="#32323C" stroke-width="0.5"/>
</svg>
