<svg width="59" height="59" viewBox="0 0 59 59" fill="none" xmlns="http://www.w3.org/2000/svg">
<path d="M36.0488 47.9375V58.75H22.7207V47.9375C22.7207 44.8234 20.724 42.168 17.9449 41.1827L17.6113 41.0645V41.4183V47.5451L0.406189 34.1094L17.6113 20.6738V27.3236V27.5472L17.8336 27.572C19.3892 27.7454 20.9173 28.0956 22.3875 28.6143L22.7207 28.7318V28.3785V20.2812V20.0312H22.4707H18.4342H17.8613H17.7078H17.6113H16.3171L29.3848 0.450365L42.4524 20.0312H41.1582H41.0006H40.9082H40.2649H36.2988H36.0488V20.2812V28.3784V28.7317L36.382 28.6142C37.8522 28.0956 39.3804 27.7453 40.9359 27.5719L41.1582 27.5471V27.3235V20.7176L58.5896 34.1094L41.1582 47.5013V41.4183V41.0644L40.8247 41.1827C38.0455 42.1682 36.0488 44.8233 36.0488 47.9375ZM31.6895 54.6406H31.9395V54.3906V47.9375C31.9395 41.7215 36.9969 36.6641 43.2129 36.6641H45.2676V38.6477V39.1554L45.67 38.8458L51.5698 34.3075L51.8274 34.1094L51.5698 33.9112L45.67 29.3729L45.2676 29.0634V29.5711V31.5547H43.2129C40.3323 31.5547 37.5004 32.3119 35.023 33.745L31.9395 35.5288V15.9219H34.2872H34.7554L34.4949 15.5328L29.5925 8.20988L29.3848 7.89957L29.177 8.20988L24.2746 15.5328L24.0141 15.9219H24.4823H26.8301V35.5288L23.7465 33.745C21.2691 32.3119 18.4372 31.5547 15.5566 31.5547H13.502V29.6201V29.107L13.0979 29.4232L7.36004 33.9125L7.10838 34.1094L7.36004 34.3063L13.0979 38.7956L13.502 39.1117V38.5987V36.6641H15.5566C21.7726 36.6641 26.8301 41.7215 26.8301 47.9375V54.3906V54.6406H27.0801H31.6895Z" fill="#FE640D" stroke="#32323C" stroke-width="0.5"/>
</svg>
