<svg width="65" height="59" viewBox="0 0 65 59" fill="none" xmlns="http://www.w3.org/2000/svg">
<path d="M59.8003 45.0112V0.595215H40.8396H29.2447H11.4496L11.423 31.2025H0V58.4052H15.3852V55.4797H59.7654C62.6518 55.4797 65 53.1315 65 50.2452C64.9999 47.3704 62.6705 45.0304 59.8003 45.0112ZM11.4095 38.2574V54.4293H3.97566V35.1781H11.4095V38.2574ZM33.2203 4.57087H36.8639V9.84703H33.2203V4.57087ZM15.422 4.57087H29.2447V13.8227H40.8396V4.57087H55.8246V45.0106H35.3805C34.919 45.0106 34.5436 44.6352 34.5436 44.1738C34.5436 43.7125 34.919 43.3371 35.3805 43.3371H42.497C45.5129 43.3371 47.9665 40.8835 47.9665 37.8677C47.9665 35.1746 45.9572 32.8484 43.2927 32.4563L37.1019 31.5461C31.2912 30.6918 27.6088 31.5235 22.8463 33.3571L15.3941 36.5504L15.422 4.57087ZM59.7652 51.504H15.3852V45.989H15.3859L15.3905 40.8767L24.3093 37.0535C29.17 35.1856 32.0286 34.8178 36.5236 35.4791L42.7144 36.3892C43.4421 36.4963 43.991 37.1317 43.991 37.8672C43.991 38.691 43.3208 39.3609 42.4971 39.3609H35.3805C32.7269 39.3609 30.568 41.5197 30.568 44.1733C30.568 46.8269 32.7269 48.9857 35.3805 48.9857H59.7652C60.4595 48.9857 61.0243 49.5505 61.0243 50.2448C61.0242 50.9393 60.4595 51.504 59.7652 51.504Z" fill="#FE640D"/>
</svg>
