<svg width="46" height="52" viewBox="0 0 46 52" fill="none" xmlns="http://www.w3.org/2000/svg">
<path d="M34.5825 41.4961L30.2656 40.1979V31.9514L30.0896 31.8851L30.2656 31.4172H30.7656V31.6052L42.8153 36.138C43.1712 36.2731 43.5544 36.3201 43.9323 36.2749C44.3102 36.2296 44.6716 36.0936 44.9856 35.8783M34.5825 41.4961L34.4224 41.9698C34.4249 41.9707 34.4274 41.9715 34.4299 41.9724M34.5825 41.4961L34.4385 41.975L34.4299 41.9724M34.5825 41.4961C35.0511 41.6545 35.458 41.9562 35.7459 42.3586C36.0337 42.761 36.1879 43.2437 36.1866 43.7385V49.6396C36.1866 50.2656 35.9381 50.866 35.4957 51.3087C35.0533 51.7513 34.4533 52 33.8277 52H12.1959C11.5771 51.9974 10.984 51.7516 10.5447 51.3155L45.4999 26.0358C45.4987 25.6926 45.4026 25.3564 45.2223 25.0644C45.0419 24.7724 44.7844 24.5361 44.4782 24.3815C44.4779 24.3814 44.4776 24.3812 44.4774 24.3811L30.0419 17.1589L29.7656 17.0207V16.7118V7.27009C29.7656 5.47445 29.0527 3.75242 27.7839 2.4828C26.5151 1.2132 24.7943 0.5 23 0.5C21.2057 0.5 19.4849 1.2132 18.2161 2.4828C16.9473 3.75242 16.2344 5.47445 16.2344 7.27009V16.7118V17.0207L15.9581 17.1589L1.52262 24.3811C1.52231 24.3812 1.52201 24.3814 1.5217 24.3816C1.21556 24.5361 0.958061 24.7725 0.777739 25.0644C0.59736 25.3565 0.501255 25.6928 0.500082 26.0362V33.8956V33.8998H0.500065C0.497541 34.2029 0.569071 34.502 0.708417 34.7712C0.847533 35.0399 1.05003 35.2705 1.29831 35.4431C1.54546 35.6123 1.82979 35.7192 2.12709 35.7548C2.42485 35.7904 2.72681 35.7534 3.0072 35.647L3.00864 35.6464L15.5583 30.9256L16.2344 30.6713V31.3936V40.1979V40.5595L15.891 40.6727L11.6012 42.0878C11.6006 42.088 11.6001 42.0882 11.5996 42.0884C11.2311 42.2133 10.9109 42.4508 10.6844 42.7675C10.4575 43.0847 10.336 43.4652 10.337 43.8553L10.337 43.8566L10.337 49.6386C10.3381 49.8844 10.388 50.1276 10.4836 50.354C10.5793 50.5808 10.7191 50.7862 10.8948 50.9585L10.8969 50.9606C11.2428 51.3039 11.7094 51.4975 12.1964 51.5H33.8277C34.3206 51.5 34.7934 51.3041 35.142 50.9552C35.4907 50.6063 35.6866 50.1331 35.6866 49.6396V43.7385V43.7373C35.6876 43.3472 35.5661 42.9666 35.3392 42.6495C35.1139 42.3345 34.7959 42.0978 34.4299 41.9724M34.4299 41.9724L30.1216 40.6767L29.7656 40.5697V40.1979V31.4172V30.6949L30.4417 30.9492L42.9914 35.67L42.9928 35.6706C43.2732 35.777 43.5751 35.814 43.8729 35.7784C44.1702 35.7428 44.4546 35.6359 44.7017 35.4667M44.7017 35.4667C44.7013 35.467 44.7009 35.4673 44.7005 35.4676L44.9856 35.8783M44.7017 35.4667C44.7021 35.4665 44.7025 35.4662 44.7028 35.466L44.9856 35.8783M44.7017 35.4667C44.95 35.2941 45.1525 35.0635 45.2916 34.7948C45.4309 34.5256 45.5025 34.2265 45.4999 33.9234L45.4999 33.9192L45.4999 26.0369L45.9999 26.0354V33.9192C46.0031 34.3037 45.9124 34.6832 45.7356 35.0247C45.5588 35.3661 45.3013 35.6592 44.9856 35.8783M28.5752 26.2656L28.5752 26.2656L28.58 26.2674L41.0825 30.9647L41.7584 31.2186V30.4966V27.4989V27.1902L41.4824 27.0519L27.0691 19.829L27.0691 19.829L27.0652 19.827C26.7552 19.6751 26.4936 19.4397 26.3096 19.1472C26.1261 18.8552 26.0272 18.518 26.0241 18.173V7.3409C26.0241 6.53229 25.7031 5.75673 25.1316 5.18486C24.56 4.61298 23.7848 4.29165 22.9764 4.29165C22.168 4.29165 21.3928 4.61298 20.8213 5.18486C20.2497 5.75673 19.9287 6.53229 19.9287 7.3409V18.173C19.9256 18.518 19.8268 18.8553 19.6432 19.1472C19.4593 19.4397 19.1976 19.6751 18.8876 19.827L18.8876 19.827L18.8837 19.829L4.47041 27.0519L4.19442 27.1902V27.4989V30.5202V31.243L4.87076 30.9881L17.3969 26.2672L17.3969 26.2673L17.4012 26.2656C17.6842 26.1559 17.9896 26.1172 18.2909 26.1529C18.5922 26.1885 18.8802 26.2974 19.1298 26.4701C19.3758 26.641 19.5769 26.8689 19.716 27.1343C19.8553 27.4 19.9282 27.6954 19.9287 27.9954V41.779C19.9284 42.1714 19.8042 42.5536 19.5738 42.8711C19.3434 43.1885 19.0186 43.4249 18.646 43.5464L18.6436 43.5472L14.3739 44.9635L14.0313 45.0771V45.438V47.2792V47.7792H14.5313H31.4451H31.9451V47.2792V45.438V45.0771L31.6025 44.9635L27.3328 43.5472L27.3305 43.5465C26.9578 43.4249 26.633 43.1885 26.4026 42.8711C26.1722 42.5536 26.048 42.1714 26.0477 41.779V27.9954C26.0482 27.6954 26.1212 27.4 26.2604 27.1343C26.3996 26.8687 26.6009 26.6407 26.8472 26.4698C27.0966 26.2973 27.3844 26.1885 27.6855 26.1529C27.9868 26.1172 28.2922 26.1559 28.5752 26.2656Z" fill="#FE640D" stroke="#24242B"/>
</svg>
