<svg width="55" height="48" viewBox="0 0 55 48" fill="none" xmlns="http://www.w3.org/2000/svg">
<path d="M5.5 40.4211V39.9211H5H2.5C1.97127 39.9211 1.46312 39.7089 1.08763 39.3294L0.732233 39.6811L1.08763 39.3294C0.711972 38.9498 0.5 38.4338 0.5 37.8947V25.2678C0.504613 25.0353 0.548721 24.8053 0.630258 24.5882L0.764995 24.3385L0.784418 24.3026L0.797736 24.2639C0.825671 24.1828 0.86335 24.1056 0.90985 24.0341L6.9015 15.9611C7.55398 15.082 8.3997 14.3689 9.37138 13.878C10.343 13.387 11.4142 13.1316 12.5 13.1316H17.5H18V12.6316V7.57895C18 5.69981 18.7388 3.89869 20.0521 2.57152C21.3653 1.24453 23.1452 0.5 25 0.5H47.5C49.3548 0.5 51.1347 1.24453 52.4479 2.57152C53.7612 3.89869 54.5 5.69981 54.5 7.57895V37.8947C54.5 38.4338 54.288 38.9498 53.9124 39.3294C53.5369 39.7089 53.0287 39.9211 52.5 39.9211H50H49.5V40.4211C49.5 42.3002 48.7612 44.1013 47.4479 45.4285C46.1347 46.7555 44.3548 47.5 42.5 47.5C40.6452 47.5 38.8653 46.7555 37.5521 45.4285C36.2388 44.1013 35.5 42.3002 35.5 40.4211V39.9211H35H20H19.5V40.4211C19.5 42.3002 18.7612 44.1013 17.4479 45.4285C16.1347 46.7555 14.3548 47.5 12.5 47.5C10.6452 47.5 8.86527 46.7555 7.5521 45.4285C6.23876 44.1013 5.5 42.3002 5.5 40.4211ZM50 35.8684H50.5V35.3684V7.57895C50.5 6.778 50.1852 6.00881 49.6232 5.44088C49.061 4.87276 48.2973 4.55263 47.5 4.55263H25C24.2027 4.55263 23.439 4.87276 22.8768 5.44087C22.3148 6.00881 22 6.778 22 7.57895V35.3684V35.8684H22.5H36.95H37.1728L37.3217 35.7028C37.9782 34.973 38.7779 34.3903 39.6696 33.9916C40.5613 33.593 41.5253 33.3871 42.5 33.3871C43.4747 33.3871 44.4387 33.593 45.3304 33.9916C46.2221 34.3903 47.0218 34.973 47.6783 35.7028L47.8272 35.8684H48.05H50ZM17.5 23.2368H18V22.7368V17.6842V17.1842H17.5H12.5C12.0334 17.1842 11.5734 17.294 11.1565 17.5047C10.7396 17.7153 10.3775 18.0208 10.0985 18.3967L7.0985 22.4389L6.50624 23.2368H7.5H17.5ZM5 27.2895H4.5V27.7895V35.3684V35.8684H5H6.95H7.1729L7.32189 35.7026C8.56406 34.3204 10.2953 33.4913 12.138 33.3943C13.9807 33.2972 15.7876 33.9398 17.1649 35.1837L18 35.9379V34.8126V27.7895V27.2895H17.5H5ZM14.6232 38.283L14.2678 38.6347L14.6232 38.283C14.204 37.8594 13.6692 37.5703 13.0863 37.4531C12.5033 37.3359 11.8991 37.3961 11.3502 37.6258C10.8015 37.8555 10.3333 38.2441 10.0043 38.7417C9.67528 39.2393 9.5 39.8237 9.5 40.4211C9.5 41.222 9.81481 41.9912 10.3768 42.5591C10.939 43.1272 11.7027 43.4474 12.5 43.4474C13.0945 43.4474 13.6752 43.2692 14.1687 42.936C14.6621 42.6028 15.0459 42.1299 15.2723 41.5775C15.4987 41.0251 15.5579 40.4176 15.4425 39.8316C15.3272 39.2456 15.0423 38.7065 14.6232 38.283ZM40.0043 38.7417C39.6753 39.2393 39.5 39.8237 39.5 40.4211C39.5 41.222 39.8148 41.9912 40.3768 42.5591C40.939 43.1272 41.7027 43.4474 42.5 43.4474C43.0945 43.4474 43.6752 43.2692 44.1687 42.936C44.6621 42.6028 45.0459 42.1298 45.2723 41.5775C45.4987 41.0251 45.5579 40.4176 45.4426 39.8316C45.3272 39.2456 45.0423 38.7066 44.6232 38.283C44.204 37.8594 43.6692 37.5703 43.0863 37.4531C42.5033 37.3359 41.8991 37.3961 41.3502 37.6258C40.8015 37.8555 40.3333 38.2441 40.0043 38.7417Z" fill="#FE640D" stroke="#24242B"/>
</svg>
