<svg width="44" height="48" viewBox="0 0 44 48" fill="none" xmlns="http://www.w3.org/2000/svg">
<path d="M38.9898 40.5064L39.2956 40.2624C40.942 38.9483 42.1988 37.2088 42.9302 35.2317C43.6616 33.2545 43.8398 31.1149 43.4455 29.0437L43.4454 29.0427L39.8512 9.84879C39.8512 9.84877 39.8512 9.84875 39.8512 9.84873C39.351 7.17951 37.9349 4.76934 35.8481 3.0349C33.7613 1.30048 31.1349 0.350815 28.423 0.35L38.9898 40.5064ZM38.9898 40.5064L39.2662 40.7832M38.9898 40.5064L39.2662 40.7832M39.2662 40.7832L42.6127 44.1345C42.6131 44.1348 42.6134 44.1352 42.6138 44.1355C42.9911 44.5208 43.2015 45.0397 43.199 45.5796C43.1966 46.1199 42.9811 46.6374 42.5997 47.0193C42.2182 47.4012 41.7017 47.6168 41.1625 47.6193C40.6237 47.6217 40.1057 47.4112 39.7209 47.0333C39.7206 47.033 39.7203 47.0327 39.7199 47.0324L35.2435 42.5501L35.1016 42.4081L34.9074 42.4588C33.9631 42.7055 32.9916 42.8324 32.0157 42.8364H11.9842C11.0083 42.8324 10.0368 42.7055 9.09244 42.4588L8.89819 42.408L8.75631 42.5501L4.2777 47.0346L4.27548 47.0369C4.08613 47.2299 3.86047 47.3835 3.61156 47.4887C3.36265 47.594 3.09541 47.6488 2.82526 47.65C2.5551 47.6512 2.28738 47.5988 2.03753 47.4959L1.9057 47.8158L2.03752 47.4959C1.78768 47.3929 1.56064 47.2414 1.36955 47.05C1.17845 46.8587 1.02708 46.6313 0.924203 46.381C0.821322 46.1307 0.768977 45.8624 0.770201 45.5917C0.771426 45.321 0.826195 45.0533 0.931334 44.8039C1.03647 44.5546 1.18989 44.3286 1.38272 44.139L1.38497 44.1367L4.73375 40.7833L5.0102 40.5065L4.70442 40.2625C3.05795 38.9484 1.80115 37.2089 1.06976 35.2318C0.338369 33.2546 0.160183 31.115 0.554455 29.0438L0.554649 29.0428M39.2662 40.7832L0.554649 29.0428M0.554649 29.0428L4.14875 9.84888C4.649 7.17964 6.06501 4.76943 8.15184 3.03497C10.2386 1.30053 12.865 0.350842 15.5769 0.35C15.5769 0.35 15.577 0.35 15.577 0.35M0.554649 29.0428L15.577 0.35M11.9828 38.7379H11.9826C10.8751 38.7375 9.78133 38.4928 8.77899 38.0213C7.77664 37.5497 6.89039 36.8628 6.18322 36.0095C5.47604 35.1562 4.9653 34.1575 4.68727 33.0842C4.40923 32.011 4.37073 30.8896 4.5745 29.7997L4.57451 29.7996L6.27827 20.7008L6.3889 20.11L6.84812 20.4979C11.0874 24.078 16.4544 26.0417 21.9999 26.0417C27.5455 26.0417 32.9125 24.078 37.1518 20.4979L37.611 20.11L37.7216 20.7008L39.4253 29.7992L11.9828 38.7379ZM11.9828 38.7379H32.0167M11.9828 38.7379L37.8157 36.0106M15.577 0.35L28.4229 0.35L15.577 0.35ZM37.8157 36.0106C37.1097 36.8649 36.2238 37.5525 35.2214 38.024C34.2188 38.4956 33.1244 38.7394 32.0167 38.7379M37.8157 36.0106C38.5247 35.1581 39.0367 34.1593 39.315 33.0855C39.5932 32.0117 39.6309 30.8897 39.4254 29.7996L37.8157 36.0106ZM32.0167 38.7379L32.0171 38.3879V38.7379H32.0167ZM11.6249 29.3119L11.633 29.3089L11.641 29.3056C12.0137 29.1492 12.4242 29.1066 12.821 29.1832C13.2146 29.2591 13.5773 29.449 13.8643 29.7292C14.0461 29.931 14.1924 30.1623 14.297 30.4131L14.298 30.4156C14.4308 30.7273 14.4843 31.0672 14.4538 31.4047C14.4232 31.7423 14.3096 32.0669 14.123 32.3496C13.9365 32.6323 13.6829 32.8643 13.385 33.0247C13.087 33.1852 12.7541 33.2692 12.4158 33.2692C12.0776 33.2692 11.7446 33.1852 11.4467 33.0247C11.1488 32.8643 10.8952 32.6323 10.7086 32.3496C10.5221 32.0669 10.4085 31.7423 10.3779 31.4047C10.3474 31.0672 10.4009 30.7273 10.5336 30.4156L10.5374 30.4067L10.5407 30.3976C10.6311 30.1481 10.775 29.9215 10.9623 29.7339C11.1497 29.5463 11.3759 29.4023 11.6249 29.3119ZM29.7018 30.4165L29.7031 30.4133C29.807 30.1641 29.952 29.9343 30.132 29.7334C30.5292 29.3715 31.0471 29.1707 31.5844 29.1707C32.1216 29.1707 32.6394 29.3714 33.0366 29.7334C33.2166 29.9343 33.3616 30.1642 33.4653 30.4134L33.4667 30.4167C33.6261 30.7887 33.6704 31.2 33.5939 31.5974C33.518 31.9921 33.3264 32.3551 33.0438 32.6401C32.8414 32.8224 32.6098 32.9694 32.3588 33.0748L32.3588 33.0748L32.3529 33.0773C32.1107 33.1844 31.8489 33.2396 31.5842 33.2396C31.3194 33.2396 31.0576 33.1844 30.8154 33.0773L30.8154 33.0773L30.8089 33.0745C30.5579 32.9697 30.3266 32.8229 30.1248 32.6404C29.842 32.3553 29.6504 31.9922 29.5744 31.5973C29.498 31.1998 29.5423 30.7885 29.7018 30.4165ZM8.16866 10.6055L8.16863 10.6057L7.33796 15.0417L7.30662 15.209L7.41892 15.337C9.24063 17.4127 11.4834 19.0756 13.9978 20.2148C16.5121 21.354 19.2402 21.9432 21.9999 21.9432C24.7597 21.9432 27.4878 21.354 30.0021 20.2148C32.5165 19.0756 34.7593 17.4127 36.581 15.337L36.6933 15.209L36.6619 15.0417L35.8313 10.6057L35.8312 10.6055C35.5064 8.87589 34.5885 7.31409 33.236 6.18991C31.8834 5.06571 30.1812 4.44974 28.4233 4.44849H28.423H15.5769H15.5766C13.8187 4.44974 12.1165 5.06571 10.7639 6.18991C9.41138 7.31409 8.49349 8.87589 8.16866 10.6055Z" fill="#FE640D" stroke="#24242B" stroke-width="0.7"/>
</svg>
