<svg width="52" height="47" viewBox="0 0 52 47" fill="none" xmlns="http://www.w3.org/2000/svg">
<path d="M44.014 32.6897L43.7685 33.3614H44.4836H49.6364C50.1317 33.3614 50.6061 33.5568 50.9554 33.9036C51.3045 34.2503 51.5 34.7198 51.5 35.2086C51.5 35.6974 51.3045 36.1669 50.9554 36.5136C50.6061 36.8604 50.1317 37.0558 49.6364 37.0558H46.8473H46.1322L46.3777 37.7275C46.7386 38.7152 46.8546 39.7746 46.7158 40.8161C46.577 41.8576 46.1875 42.8508 45.58 43.7115C44.9725 44.5723 44.1648 45.2754 43.2251 45.7609C42.2854 46.2464 41.2415 46.5 40.1818 46.5C39.1222 46.5 38.0782 46.2464 37.1385 45.7609C36.1988 45.2754 35.3911 44.5723 34.7836 43.7115C34.1761 42.8508 33.7866 41.8576 33.6478 40.8161C33.509 39.7746 33.625 38.7152 33.986 37.7275L34.2315 37.0558H33.5164H25.5745H24.8617L25.1044 37.7261C25.4659 38.7244 25.5773 39.795 25.4292 40.8455C25.281 41.896 24.8776 42.8952 24.2536 43.7569C23.6295 44.6185 22.8035 45.3168 21.8464 45.7911C20.8894 46.2655 19.8303 46.5015 18.7606 46.4788C17.6909 46.456 16.643 46.1751 15.7074 45.6605C14.7718 45.1459 13.9767 44.4132 13.3904 43.5259C12.8041 42.6385 12.4442 41.6231 12.3415 40.5673C12.2388 39.5115 12.3963 38.4466 12.8005 37.4645L13.0172 36.9381L12.4673 36.7911C11.0731 36.4183 9.84128 35.6016 8.96061 34.467C8.08027 33.3329 7.59931 31.9437 7.59091 30.5127V7.04172C7.59091 6.28546 7.28835 5.56088 6.75094 5.02719C6.21364 4.49362 5.48564 4.19448 4.72727 4.19448H2.36364C1.86825 4.19448 1.39385 3.99902 1.04461 3.65221C0.695495 3.30551 0.5 2.83603 0.5 2.34724C0.5 1.85845 0.695495 1.38897 1.04461 1.04227C1.39385 0.695459 1.86825 0.5 2.36364 0.5H4.72727C6.47641 0.5 8.15321 1.19005 9.38898 2.41725C10.6246 3.64434 11.3182 5.30787 11.3182 7.04172V30.5141C11.3182 31.2704 11.6207 31.995 12.1582 32.5286C12.6955 33.0622 13.4235 33.3614 14.1818 33.3614H16.9709H17.6861L17.4405 32.6897C17.1852 31.9913 17.0516 31.2548 17.0455 30.512V18.7779C17.0455 17.0441 17.739 15.3805 18.9747 14.1535C20.2104 12.9263 21.8872 12.2362 23.6364 12.2362H37.8182C39.5673 12.2362 41.2441 12.9263 42.4799 14.1535C43.7155 15.3805 44.4091 17.0441 44.4091 18.7779V30.512C44.4029 31.2548 44.2694 31.9913 44.014 32.6897ZM17.3195 42.2714L17.5959 41.8547L17.3195 42.2714C17.7903 42.5838 18.3435 42.7503 18.9091 42.7503C19.6675 42.7503 20.3955 42.4512 20.9328 41.9176C21.4702 41.3839 21.7727 40.6593 21.7727 39.9031C21.7727 39.3392 21.6043 38.7882 21.2892 38.3199C20.9741 37.8516 20.5267 37.4872 20.0038 37.2721C19.481 37.057 18.9059 37.0008 18.3511 37.1104C17.7962 37.22 17.2861 37.4906 16.8854 37.8885C16.4847 38.2865 16.2114 38.794 16.1006 39.3469C15.9898 39.8999 16.0467 40.4731 16.2639 40.9938C16.4811 41.5145 16.8486 41.9589 17.3195 42.2714ZM21.6127 32.5286C22.15 33.0622 22.878 33.3614 23.6364 33.3614H37.8182C38.5765 33.3614 39.3045 33.0622 39.8418 32.5286C40.3793 31.995 40.6818 31.2704 40.6818 30.5141V18.7779C40.6818 18.0217 40.3793 17.2971 39.8418 16.7634C39.3045 16.2298 38.5765 15.9307 37.8182 15.9307H23.6364C22.878 15.9307 22.15 16.2298 21.6127 16.7634C21.0753 17.2971 20.7727 18.0217 20.7727 18.7779V30.5141C20.7727 31.2704 21.0753 31.995 21.6127 32.5286ZM38.5922 42.2714C39.063 42.5838 39.6162 42.7503 40.1818 42.7503C40.9402 42.7503 41.6682 42.4512 42.2055 41.9176C42.7429 41.3839 43.0455 40.6593 43.0455 39.9031C43.0455 39.3392 42.8771 38.7882 42.5619 38.3199C42.2469 37.8516 41.7994 37.4872 41.2765 37.2721C40.7537 37.057 40.1786 37.0008 39.6238 37.1104C39.069 37.22 38.5589 37.4906 38.1581 37.8885C37.7574 38.2865 37.4841 38.794 37.3733 39.3469C37.2626 39.8999 37.3194 40.4731 37.5366 40.9938C37.7538 41.5145 38.1213 41.9589 38.5922 42.2714Z" fill="#FE640D" stroke="#24242B"/>
</svg>
