<svg width="17" height="17" viewBox="0 0 17 17" fill="none" xmlns="http://www.w3.org/2000/svg">
<path d="M8.49993 8.4014L15.411 4.63172C15.1912 3.90854 14.7454 3.27486 14.1389 2.8237C13.5325 2.37254 12.7974 2.12766 12.0416 2.125H4.95827C4.20243 2.12766 3.46735 2.37254 2.86092 2.8237C2.25449 3.27486 1.80866 3.90854 1.58887 4.63172L8.49993 8.4014Z" fill="#FE640D"/>
<path d="M8.83913 9.82996C8.73504 9.88669 8.61839 9.91642 8.49984 9.91642C8.38129 9.91642 8.26463 9.88669 8.16055 9.82996L1.4165 6.15137V11.3331C1.41761 12.2721 1.7911 13.1723 2.45506 13.8362C3.11901 14.5002 4.0192 14.8737 4.95817 14.8748H12.0415C12.9805 14.8737 13.8807 14.5002 14.5446 13.8362C15.2086 13.1723 15.5821 12.2721 15.5832 11.3331V6.15137L8.83913 9.82996Z" fill="#FE640D"/>
</svg>
