<svg width="48" height="48" viewBox="0 0 48 48" fill="none" xmlns="http://www.w3.org/2000/svg">
<mask id="path-1-inside-1_273_1517" fill="white">
<path d="M16.8 24.0048H12C11.3635 24.0048 10.753 24.2576 10.303 24.7076C9.85287 25.1576 9.60002 25.7679 9.60002 26.4043C9.60002 27.0407 9.85287 27.651 10.303 28.101C10.753 28.551 11.3635 28.8038 12 28.8038H16.8C17.4365 28.8038 18.047 28.551 18.4971 28.101C18.9472 27.651 19.2 27.0407 19.2 26.4043C19.2 25.7679 18.9472 25.1576 18.4971 24.7076C18.047 24.2576 17.4365 24.0048 16.8 24.0048ZM14.4 19.2057H24C24.6365 19.2057 25.247 18.9529 25.6971 18.5029C26.1472 18.0529 26.4 17.4426 26.4 16.8062C26.4 16.1698 26.1472 15.5595 25.6971 15.1095C25.247 14.6595 24.6365 14.4067 24 14.4067H14.4C13.7635 14.4067 13.153 14.6595 12.703 15.1095C12.2529 15.5595 12 16.1698 12 16.8062C12 17.4426 12.2529 18.0529 12.703 18.5029C13.153 18.9529 13.7635 19.2057 14.4 19.2057ZM16.8 33.6029H12C11.3635 33.6029 10.753 33.8557 10.303 34.3057C9.85287 34.7557 9.60002 35.366 9.60002 36.0024C9.60002 36.6388 9.85287 37.2491 10.303 37.6991C10.753 38.1491 11.3635 38.4019 12 38.4019H16.8C17.4365 38.4019 18.047 38.1491 18.4971 37.6991C18.9472 37.2491 19.2 36.6388 19.2 36.0024C19.2 35.366 18.9472 34.7557 18.4971 34.3057C18.047 33.8557 17.4365 33.6029 16.8 33.6029ZM45.6 24.0048H38.4V2.40906C38.4017 1.98624 38.2916 1.57048 38.0809 1.20389C37.8701 0.837296 37.5663 0.532884 37.2 0.321475C36.8352 0.110873 36.4213 0 36 0C35.5787 0 35.1649 0.110873 34.8 0.321475L27.6 4.44865L20.4 0.321475C20.0352 0.110873 19.6213 0 19.2 0C18.7787 0 18.3649 0.110873 18 0.321475L10.8 4.44865L3.60002 0.321475C3.23517 0.110873 2.82131 0 2.40002 0C1.97873 0 1.56486 0.110873 1.20002 0.321475C0.833768 0.532884 0.529894 0.837296 0.319166 1.20389C0.108439 1.57048 -0.00166004 1.98624 1.89189e-05 2.40906V40.8014C1.89189e-05 42.7106 0.758588 44.5416 2.10885 45.8916C3.45911 47.2416 5.29046 48 7.20002 48H40.8C42.7096 48 44.5409 47.2416 45.8912 45.8916C47.2414 44.5416 48 42.7106 48 40.8014V26.4043C48 25.7679 47.7471 25.1576 47.2971 24.7076C46.847 24.2576 46.2365 24.0048 45.6 24.0048ZM7.20002 43.201C6.5635 43.201 5.95305 42.9481 5.50296 42.4981C5.05287 42.0482 4.80002 41.4378 4.80002 40.8014V6.56023L9.60002 9.29569C9.97043 9.48912 10.3821 9.59014 10.8 9.59014C11.2179 9.59014 11.6296 9.48912 12 9.29569L19.2 5.16851L26.4 9.29569C26.7704 9.48912 27.1821 9.59014 27.6 9.59014C28.0179 9.59014 28.4296 9.48912 28.8 9.29569L33.6 6.56023V40.8014C33.6065 41.62 33.7526 42.4315 34.032 43.201H7.20002ZM43.2 40.8014C43.2 41.4378 42.9471 42.0482 42.4971 42.4981C42.047 42.9481 41.4365 43.201 40.8 43.201C40.1635 43.201 39.553 42.9481 39.1029 42.4981C38.6529 42.0482 38.4 41.4378 38.4 40.8014V28.8038H43.2V40.8014ZM27.744 34.0108C27.6102 33.92 27.4649 33.8473 27.312 33.7948C27.1691 33.7218 27.015 33.6731 26.856 33.6509C26.4704 33.5737 26.0718 33.5924 25.6952 33.7053C25.3185 33.8183 24.9754 34.0221 24.696 34.2987C24.2574 34.7586 24.0089 35.3671 24 36.0024C23.9962 36.3144 24.0533 36.6241 24.168 36.9142C24.2985 37.2058 24.4769 37.4735 24.696 37.706C24.9293 37.918 25.1972 38.0884 25.488 38.2099C25.7753 38.3369 26.0859 38.4025 26.4 38.4025C26.7141 38.4025 27.0247 38.3369 27.312 38.2099C27.6029 38.0884 27.8707 37.918 28.104 37.706C28.3264 37.4818 28.5024 37.2159 28.6219 36.9236C28.7413 36.6312 28.8018 36.3182 28.8 36.0024C28.7912 35.3671 28.5426 34.7586 28.104 34.2987C27.99 34.1955 27.8697 34.0994 27.744 34.0108ZM28.08 24.7006C27.7998 24.4278 27.4571 24.2275 27.0817 24.1174C26.7064 24.0072 26.3098 23.9904 25.9265 24.0684C25.5432 24.1465 25.1848 24.3171 24.8825 24.5653C24.5802 24.8134 24.3432 25.1318 24.192 25.4925C24.0426 25.856 23.9848 26.2506 24.0237 26.6417C24.0626 27.0328 24.197 27.4083 24.415 27.7353C24.6331 28.0623 24.9281 28.3308 25.2742 28.5171C25.6203 28.7034 26.0069 28.8019 26.4 28.8038C27.0365 28.8038 27.647 28.551 28.0971 28.101C28.5472 27.651 28.8 27.0407 28.8 26.4043C28.7962 26.0907 28.731 25.7809 28.608 25.4925C28.4924 25.1929 28.3121 24.9226 28.08 24.7006Z"/>
</mask>
<path d="M16.8 24.0048H12C11.3635 24.0048 10.753 24.2576 10.303 24.7076C9.85287 25.1576 9.60002 25.7679 9.60002 26.4043C9.60002 27.0407 9.85287 27.651 10.303 28.101C10.753 28.551 11.3635 28.8038 12 28.8038H16.8C17.4365 28.8038 18.047 28.551 18.4971 28.101C18.9472 27.651 19.2 27.0407 19.2 26.4043C19.2 25.7679 18.9472 25.1576 18.4971 24.7076C18.047 24.2576 17.4365 24.0048 16.8 24.0048ZM14.4 19.2057H24C24.6365 19.2057 25.247 18.9529 25.6971 18.5029C26.1472 18.0529 26.4 17.4426 26.4 16.8062C26.4 16.1698 26.1472 15.5595 25.6971 15.1095C25.247 14.6595 24.6365 14.4067 24 14.4067H14.4C13.7635 14.4067 13.153 14.6595 12.703 15.1095C12.2529 15.5595 12 16.1698 12 16.8062C12 17.4426 12.2529 18.0529 12.703 18.5029C13.153 18.9529 13.7635 19.2057 14.4 19.2057ZM16.8 33.6029H12C11.3635 33.6029 10.753 33.8557 10.303 34.3057C9.85287 34.7557 9.60002 35.366 9.60002 36.0024C9.60002 36.6388 9.85287 37.2491 10.303 37.6991C10.753 38.1491 11.3635 38.4019 12 38.4019H16.8C17.4365 38.4019 18.047 38.1491 18.4971 37.6991C18.9472 37.2491 19.2 36.6388 19.2 36.0024C19.2 35.366 18.9472 34.7557 18.4971 34.3057C18.047 33.8557 17.4365 33.6029 16.8 33.6029ZM45.6 24.0048H38.4V2.40906C38.4017 1.98624 38.2916 1.57048 38.0809 1.20389C37.8701 0.837296 37.5663 0.532884 37.2 0.321475C36.8352 0.110873 36.4213 0 36 0C35.5787 0 35.1649 0.110873 34.8 0.321475L27.6 4.44865L20.4 0.321475C20.0352 0.110873 19.6213 0 19.2 0C18.7787 0 18.3649 0.110873 18 0.321475L10.8 4.44865L3.60002 0.321475C3.23517 0.110873 2.82131 0 2.40002 0C1.97873 0 1.56486 0.110873 1.20002 0.321475C0.833768 0.532884 0.529894 0.837296 0.319166 1.20389C0.108439 1.57048 -0.00166004 1.98624 1.89189e-05 2.40906V40.8014C1.89189e-05 42.7106 0.758588 44.5416 2.10885 45.8916C3.45911 47.2416 5.29046 48 7.20002 48H40.8C42.7096 48 44.5409 47.2416 45.8912 45.8916C47.2414 44.5416 48 42.7106 48 40.8014V26.4043C48 25.7679 47.7471 25.1576 47.2971 24.7076C46.847 24.2576 46.2365 24.0048 45.6 24.0048ZM7.20002 43.201C6.5635 43.201 5.95305 42.9481 5.50296 42.4981C5.05287 42.0482 4.80002 41.4378 4.80002 40.8014V6.56023L9.60002 9.29569C9.97043 9.48912 10.3821 9.59014 10.8 9.59014C11.2179 9.59014 11.6296 9.48912 12 9.29569L19.2 5.16851L26.4 9.29569C26.7704 9.48912 27.1821 9.59014 27.6 9.59014C28.0179 9.59014 28.4296 9.48912 28.8 9.29569L33.6 6.56023V40.8014C33.6065 41.62 33.7526 42.4315 34.032 43.201H7.20002ZM43.2 40.8014C43.2 41.4378 42.9471 42.0482 42.4971 42.4981C42.047 42.9481 41.4365 43.201 40.8 43.201C40.1635 43.201 39.553 42.9481 39.1029 42.4981C38.6529 42.0482 38.4 41.4378 38.4 40.8014V28.8038H43.2V40.8014ZM27.744 34.0108C27.6102 33.92 27.4649 33.8473 27.312 33.7948C27.1691 33.7218 27.015 33.6731 26.856 33.6509C26.4704 33.5737 26.0718 33.5924 25.6952 33.7053C25.3185 33.8183 24.9754 34.0221 24.696 34.2987C24.2574 34.7586 24.0089 35.3671 24 36.0024C23.9962 36.3144 24.0533 36.6241 24.168 36.9142C24.2985 37.2058 24.4769 37.4735 24.696 37.706C24.9293 37.918 25.1972 38.0884 25.488 38.2099C25.7753 38.3369 26.0859 38.4025 26.4 38.4025C26.7141 38.4025 27.0247 38.3369 27.312 38.2099C27.6029 38.0884 27.8707 37.918 28.104 37.706C28.3264 37.4818 28.5024 37.2159 28.6219 36.9236C28.7413 36.6312 28.8018 36.3182 28.8 36.0024C28.7912 35.3671 28.5426 34.7586 28.104 34.2987C27.99 34.1955 27.8697 34.0994 27.744 34.0108ZM28.08 24.7006C27.7998 24.4278 27.4571 24.2275 27.0817 24.1174C26.7064 24.0072 26.3098 23.9904 25.9265 24.0684C25.5432 24.1465 25.1848 24.3171 24.8825 24.5653C24.5802 24.8134 24.3432 25.1318 24.192 25.4925C24.0426 25.856 23.9848 26.2506 24.0237 26.6417C24.0626 27.0328 24.197 27.4083 24.415 27.7353C24.6331 28.0623 24.9281 28.3308 25.2742 28.5171C25.6203 28.7034 26.0069 28.8019 26.4 28.8038C27.0365 28.8038 27.647 28.551 28.0971 28.101C28.5472 27.651 28.8 27.0407 28.8 26.4043C28.7962 26.0907 28.731 25.7809 28.608 25.4925C28.4924 25.1929 28.3121 24.9226 28.08 24.7006Z" fill="#FE640D" stroke="#202027" stroke-width="2" mask="url(#path-1-inside-1_273_1517)"/>
</svg>
