<svg width="44" height="48" viewBox="0 0 44 48" fill="none" xmlns="http://www.w3.org/2000/svg">
<path d="M39.4475 15.997L13.683 1.22229C12.2888 0.41731 10.7064 -0.00438705 9.09656 3.44143e-05C7.48666 0.00445588 5.90662 0.434838 4.51691 1.24747C3.1272 2.0601 1.97733 3.22602 1.1841 4.62682C0.39087 6.02761 -0.0174643 7.61338 0.000572664 9.22304V38.8791C0.000572664 41.2981 0.961596 43.6181 2.67223 45.3286C4.38286 47.0391 6.70298 48 9.12218 48C10.7236 47.9973 12.2963 47.5743 13.683 46.7732L39.4475 31.9985C40.8319 31.1973 41.9813 30.0462 42.7803 28.6607C43.5794 27.2751 44 25.7038 44 24.1044C44 22.505 43.5794 20.9337 42.7803 19.5482C41.9813 18.1626 40.8319 17.0115 39.4475 16.2104V15.997ZM36.7804 27.1714L11.0158 42.1595C10.4384 42.4867 9.78594 42.6587 9.12218 42.6587C8.45842 42.6587 7.80599 42.4867 7.22851 42.1595C6.65267 41.827 6.17451 41.3488 5.84209 40.773C5.50968 40.1972 5.33473 39.544 5.33485 38.8791V9.11636C5.33473 8.45149 5.50968 7.79831 5.84209 7.22249C6.17451 6.64666 6.65267 6.16849 7.22851 5.83606C7.80837 5.51378 8.45886 5.33972 9.12218 5.32934C9.78505 5.34295 10.4348 5.5168 11.0158 5.83606L36.7804 20.7174C37.3564 21.0497 37.8348 21.5278 38.1675 22.1037C38.5001 22.6795 38.6752 23.3328 38.6752 23.9978C38.6752 24.6627 38.5001 25.316 38.1675 25.8918C37.8348 26.4677 37.3564 26.9458 36.7804 27.2781V27.1714Z" fill="#FE640D"/>
</svg>
