<svg width="14" height="19" viewBox="0 0 14 19" fill="none" xmlns="http://www.w3.org/2000/svg">
<path d="M7 0C3.14031 0 0 3.24633 0 7.23633C0 8.81533 0.482462 10.3157 1.39641 11.5744L6.56851 18.7755C6.58144 18.793 6.60118 18.7996 6.61554 18.8152C6.874 19.1013 7.24697 19.0294 7.43113 18.7755C8.92051 16.7212 11.6505 12.8844 12.7002 11.4371C12.7002 11.4371 12.7005 11.436 12.7009 11.4353L12.7073 11.4263C13.5531 10.198 14 8.74928 14 7.23633C14 3.24633 10.8597 0 7 0ZM7 11.1402C4.9219 11.1402 3.22359 9.38459 3.22359 7.23633C3.22359 5.08807 4.9219 3.33242 7 3.33242C9.0781 3.33242 10.7764 5.08807 10.7764 7.23633C10.7764 9.38459 9.0781 11.1402 7 11.1402Z" fill="#FE640D"/>
</svg>
