<svg width="16" height="16" viewBox="0 0 16 16" fill="none" xmlns="http://www.w3.org/2000/svg">
<path opacity="0.6" d="M15.5239 9.68861C16.6815 4.48785 12.1247 -0.236914 6.77323 0.670079C3.86822 -1.13251 0 0.904678 0 4.36065C0 5.16445 0.221801 5.91684 0.607403 6.56544C-0.468202 11.7784 4.12582 16.435 9.47264 15.4662C13.2523 17.4646 17.4287 13.479 15.5239 9.68861ZM10.437 12.8252C9.03304 13.4026 6.72263 13.4058 5.32483 12.674C3.33142 11.6112 2.97721 9.21862 4.69682 9.21862C5.99283 9.21862 5.58263 10.7296 6.89123 11.3456C7.49204 11.6232 8.78344 11.652 9.53404 11.1458C10.2752 10.6496 10.2074 9.86921 9.80445 9.49642C8.73684 8.51082 5.68183 8.90242 4.28522 7.17703C3.67842 6.42864 3.56402 5.10805 4.30982 4.15045C5.60983 2.47767 9.42484 2.37587 11.0651 3.63906C12.5795 4.81105 12.1707 6.36664 10.9485 6.36664C9.47864 6.36664 10.251 4.44345 7.87824 4.44345C6.15803 4.44345 5.48123 5.66664 6.69283 6.26204C8.33524 7.07783 12.5205 6.80543 12.5205 9.99321C12.5169 11.3194 11.7037 12.3084 10.437 12.8252Z" fill="white"/>
</svg>
